<mxfile host="app.diagrams.net" modified="2021-10-14T11:39:04.720Z" agent="5.0 (Macintosh; Intel Mac OS X 10_15_7) AppleWebKit/537.36 (KHTML, like Gecko) Chrome/94.0.4606.61 Safari/537.36" etag="V1E6DGVaoPxVwW2ZUgIa" version="15.4.0" type="github">
  <diagram id="C5RBs43oDa-KdzZeNtuy" name="Page-1">
    <mxGraphModel dx="1298" dy="751" grid="1" gridSize="10" guides="1" tooltips="1" connect="1" arrows="1" fold="1" page="1" pageScale="1" pageWidth="827" pageHeight="1169" math="0" shadow="0">
      <root>
        <mxCell id="WIyWlLk6GJQsqaUBKTNV-0" />
        <mxCell id="WIyWlLk6GJQsqaUBKTNV-1" parent="WIyWlLk6GJQsqaUBKTNV-0" />
        <mxCell id="WIyWlLk6GJQsqaUBKTNV-2" value="" style="rounded=0;html=1;jettySize=auto;orthogonalLoop=1;fontSize=11;endArrow=block;endFill=0;endSize=8;strokeWidth=1;shadow=0;labelBackgroundColor=none;edgeStyle=orthogonalEdgeStyle;" parent="WIyWlLk6GJQsqaUBKTNV-1" target="WIyWlLk6GJQsqaUBKTNV-6" edge="1">
          <mxGeometry relative="1" as="geometry">
            <mxPoint x="360" y="110" as="sourcePoint" />
          </mxGeometry>
        </mxCell>
        <mxCell id="WIyWlLk6GJQsqaUBKTNV-4" value="Yes" style="rounded=0;html=1;jettySize=auto;orthogonalLoop=1;fontSize=11;endArrow=block;endFill=0;endSize=8;strokeWidth=1;shadow=0;labelBackgroundColor=none;edgeStyle=orthogonalEdgeStyle;" parent="WIyWlLk6GJQsqaUBKTNV-1" source="WIyWlLk6GJQsqaUBKTNV-6" target="WIyWlLk6GJQsqaUBKTNV-10" edge="1">
          <mxGeometry y="20" relative="1" as="geometry">
            <mxPoint as="offset" />
          </mxGeometry>
        </mxCell>
        <mxCell id="WIyWlLk6GJQsqaUBKTNV-5" value="No" style="edgeStyle=orthogonalEdgeStyle;rounded=0;html=1;jettySize=auto;orthogonalLoop=1;fontSize=11;endArrow=block;endFill=0;endSize=8;strokeWidth=1;shadow=0;labelBackgroundColor=none;" parent="WIyWlLk6GJQsqaUBKTNV-1" source="WIyWlLk6GJQsqaUBKTNV-6" target="WIyWlLk6GJQsqaUBKTNV-7" edge="1">
          <mxGeometry y="10" relative="1" as="geometry">
            <mxPoint as="offset" />
          </mxGeometry>
        </mxCell>
        <mxCell id="WIyWlLk6GJQsqaUBKTNV-6" value="Lamp&lt;br&gt;plugged in?" style="rhombus;whiteSpace=wrap;html=1;shadow=0;fontFamily=Helvetica;fontSize=12;align=center;strokeWidth=1;spacing=6;spacingTop=-4;" parent="WIyWlLk6GJQsqaUBKTNV-1" vertex="1">
          <mxGeometry x="310" y="160" width="100" height="80" as="geometry" />
        </mxCell>
        <mxCell id="WIyWlLk6GJQsqaUBKTNV-7" value="Plug in lamp" style="rounded=1;whiteSpace=wrap;html=1;fontSize=12;glass=0;strokeWidth=1;shadow=0;" parent="WIyWlLk6GJQsqaUBKTNV-1" vertex="1">
          <mxGeometry x="460" y="180" width="120" height="40" as="geometry" />
        </mxCell>
        <mxCell id="WIyWlLk6GJQsqaUBKTNV-8" value="No" style="rounded=0;html=1;jettySize=auto;orthogonalLoop=1;fontSize=11;endArrow=block;endFill=0;endSize=8;strokeWidth=1;shadow=0;labelBackgroundColor=none;edgeStyle=orthogonalEdgeStyle;" parent="WIyWlLk6GJQsqaUBKTNV-1" source="WIyWlLk6GJQsqaUBKTNV-10" target="WIyWlLk6GJQsqaUBKTNV-11" edge="1">
          <mxGeometry x="0.3333" y="20" relative="1" as="geometry">
            <mxPoint as="offset" />
          </mxGeometry>
        </mxCell>
        <mxCell id="WIyWlLk6GJQsqaUBKTNV-9" value="Yes" style="edgeStyle=orthogonalEdgeStyle;rounded=0;html=1;jettySize=auto;orthogonalLoop=1;fontSize=11;endArrow=block;endFill=0;endSize=8;strokeWidth=1;shadow=0;labelBackgroundColor=none;" parent="WIyWlLk6GJQsqaUBKTNV-1" source="WIyWlLk6GJQsqaUBKTNV-10" target="WIyWlLk6GJQsqaUBKTNV-12" edge="1">
          <mxGeometry y="10" relative="1" as="geometry">
            <mxPoint as="offset" />
          </mxGeometry>
        </mxCell>
        <mxCell id="WIyWlLk6GJQsqaUBKTNV-10" value="Bulb&lt;br&gt;burned out?" style="rhombus;whiteSpace=wrap;html=1;shadow=0;fontFamily=Helvetica;fontSize=12;align=center;strokeWidth=1;spacing=6;spacingTop=-4;" parent="WIyWlLk6GJQsqaUBKTNV-1" vertex="1">
          <mxGeometry x="310" y="280" width="100" height="80" as="geometry" />
        </mxCell>
        <mxCell id="WIyWlLk6GJQsqaUBKTNV-11" value="Repair Lamp" style="rounded=1;whiteSpace=wrap;html=1;fontSize=12;glass=0;strokeWidth=1;shadow=0;" parent="WIyWlLk6GJQsqaUBKTNV-1" vertex="1">
          <mxGeometry x="300" y="420" width="120" height="40" as="geometry" />
        </mxCell>
        <mxCell id="WIyWlLk6GJQsqaUBKTNV-12" value="Replace Bulb" style="rounded=1;whiteSpace=wrap;html=1;fontSize=12;glass=0;strokeWidth=1;shadow=0;" parent="WIyWlLk6GJQsqaUBKTNV-1" vertex="1">
          <mxGeometry x="460" y="300" width="120" height="40" as="geometry" />
        </mxCell>
        <mxCell id="Ehcnpz0QYgViYkUAv1cR-3" value="" style="edgeStyle=orthogonalEdgeStyle;rounded=0;orthogonalLoop=1;jettySize=auto;html=1;" edge="1" parent="WIyWlLk6GJQsqaUBKTNV-1" source="Ehcnpz0QYgViYkUAv1cR-0" target="Ehcnpz0QYgViYkUAv1cR-1">
          <mxGeometry relative="1" as="geometry" />
        </mxCell>
        <mxCell id="Ehcnpz0QYgViYkUAv1cR-0" value="设计数据指标" style="rounded=1;whiteSpace=wrap;html=1;fontSize=12;glass=0;strokeWidth=1;shadow=0;" vertex="1" parent="WIyWlLk6GJQsqaUBKTNV-1">
          <mxGeometry x="755" y="70" width="120" height="40" as="geometry" />
        </mxCell>
        <mxCell id="Ehcnpz0QYgViYkUAv1cR-4" value="" style="edgeStyle=orthogonalEdgeStyle;rounded=0;orthogonalLoop=1;jettySize=auto;html=1;" edge="1" parent="WIyWlLk6GJQsqaUBKTNV-1" source="Ehcnpz0QYgViYkUAv1cR-1" target="Ehcnpz0QYgViYkUAv1cR-2">
          <mxGeometry relative="1" as="geometry" />
        </mxCell>
        <mxCell id="Ehcnpz0QYgViYkUAv1cR-1" value="确定埋点页面" style="rounded=1;whiteSpace=wrap;html=1;fontSize=12;glass=0;strokeWidth=1;shadow=0;" vertex="1" parent="WIyWlLk6GJQsqaUBKTNV-1">
          <mxGeometry x="755" y="160" width="120" height="40" as="geometry" />
        </mxCell>
        <mxCell id="Ehcnpz0QYgViYkUAv1cR-7" style="edgeStyle=orthogonalEdgeStyle;rounded=0;orthogonalLoop=1;jettySize=auto;html=1;entryX=0.5;entryY=0;entryDx=0;entryDy=0;" edge="1" parent="WIyWlLk6GJQsqaUBKTNV-1" source="Ehcnpz0QYgViYkUAv1cR-2" target="Ehcnpz0QYgViYkUAv1cR-5">
          <mxGeometry relative="1" as="geometry" />
        </mxCell>
        <mxCell id="Ehcnpz0QYgViYkUAv1cR-9" value="是" style="edgeLabel;html=1;align=center;verticalAlign=middle;resizable=0;points=[];" vertex="1" connectable="0" parent="Ehcnpz0QYgViYkUAv1cR-7">
          <mxGeometry x="-0.28" y="1" relative="1" as="geometry">
            <mxPoint as="offset" />
          </mxGeometry>
        </mxCell>
        <mxCell id="Ehcnpz0QYgViYkUAv1cR-8" style="edgeStyle=orthogonalEdgeStyle;rounded=0;orthogonalLoop=1;jettySize=auto;html=1;entryX=0.5;entryY=0;entryDx=0;entryDy=0;" edge="1" parent="WIyWlLk6GJQsqaUBKTNV-1" source="Ehcnpz0QYgViYkUAv1cR-2" target="Ehcnpz0QYgViYkUAv1cR-6">
          <mxGeometry relative="1" as="geometry" />
        </mxCell>
        <mxCell id="Ehcnpz0QYgViYkUAv1cR-10" value="否" style="edgeLabel;html=1;align=center;verticalAlign=middle;resizable=0;points=[];" vertex="1" connectable="0" parent="Ehcnpz0QYgViYkUAv1cR-8">
          <mxGeometry x="0.56" y="1" relative="1" as="geometry">
            <mxPoint as="offset" />
          </mxGeometry>
        </mxCell>
        <mxCell id="Ehcnpz0QYgViYkUAv1cR-2" value="确认页面是否存在" style="rhombus;whiteSpace=wrap;html=1;shadow=0;fontFamily=Helvetica;fontSize=12;align=center;strokeWidth=1;spacing=6;spacingTop=-4;" vertex="1" parent="WIyWlLk6GJQsqaUBKTNV-1">
          <mxGeometry x="760" y="250" width="110" height="60" as="geometry" />
        </mxCell>
        <mxCell id="Ehcnpz0QYgViYkUAv1cR-27" style="edgeStyle=orthogonalEdgeStyle;rounded=0;orthogonalLoop=1;jettySize=auto;html=1;entryX=0.5;entryY=0;entryDx=0;entryDy=0;" edge="1" parent="WIyWlLk6GJQsqaUBKTNV-1" source="Ehcnpz0QYgViYkUAv1cR-5" target="Ehcnpz0QYgViYkUAv1cR-25">
          <mxGeometry relative="1" as="geometry" />
        </mxCell>
        <mxCell id="Ehcnpz0QYgViYkUAv1cR-5" value="确认PV埋点" style="rounded=1;whiteSpace=wrap;html=1;" vertex="1" parent="WIyWlLk6GJQsqaUBKTNV-1">
          <mxGeometry x="755" y="740" width="120" height="40" as="geometry" />
        </mxCell>
        <mxCell id="Ehcnpz0QYgViYkUAv1cR-12" value="" style="edgeStyle=orthogonalEdgeStyle;rounded=0;orthogonalLoop=1;jettySize=auto;html=1;" edge="1" parent="WIyWlLk6GJQsqaUBKTNV-1" source="Ehcnpz0QYgViYkUAv1cR-6" target="Ehcnpz0QYgViYkUAv1cR-11">
          <mxGeometry relative="1" as="geometry" />
        </mxCell>
        <mxCell id="Ehcnpz0QYgViYkUAv1cR-6" value="添加PV埋点" style="rounded=1;whiteSpace=wrap;html=1;" vertex="1" parent="WIyWlLk6GJQsqaUBKTNV-1">
          <mxGeometry x="930" y="340" width="120" height="40" as="geometry" />
        </mxCell>
        <mxCell id="Ehcnpz0QYgViYkUAv1cR-14" value="" style="edgeStyle=orthogonalEdgeStyle;rounded=0;orthogonalLoop=1;jettySize=auto;html=1;" edge="1" parent="WIyWlLk6GJQsqaUBKTNV-1" source="Ehcnpz0QYgViYkUAv1cR-11" target="Ehcnpz0QYgViYkUAv1cR-13">
          <mxGeometry relative="1" as="geometry" />
        </mxCell>
        <mxCell id="Ehcnpz0QYgViYkUAv1cR-11" value="page：确认页面中文名称" style="rounded=1;whiteSpace=wrap;html=1;" vertex="1" parent="WIyWlLk6GJQsqaUBKTNV-1">
          <mxGeometry x="930" y="430" width="120" height="40" as="geometry" />
        </mxCell>
        <mxCell id="Ehcnpz0QYgViYkUAv1cR-16" value="" style="edgeStyle=orthogonalEdgeStyle;rounded=0;orthogonalLoop=1;jettySize=auto;html=1;" edge="1" parent="WIyWlLk6GJQsqaUBKTNV-1" source="Ehcnpz0QYgViYkUAv1cR-13">
          <mxGeometry relative="1" as="geometry">
            <mxPoint x="990" y="610" as="targetPoint" />
          </mxGeometry>
        </mxCell>
        <mxCell id="Ehcnpz0QYgViYkUAv1cR-13" value="page_id：确认页面英文名称" style="rounded=1;whiteSpace=wrap;html=1;" vertex="1" parent="WIyWlLk6GJQsqaUBKTNV-1">
          <mxGeometry x="930" y="520" width="120" height="40" as="geometry" />
        </mxCell>
        <mxCell id="Ehcnpz0QYgViYkUAv1cR-23" value="" style="edgeStyle=orthogonalEdgeStyle;rounded=0;orthogonalLoop=1;jettySize=auto;html=1;" edge="1" parent="WIyWlLk6GJQsqaUBKTNV-1" source="Ehcnpz0QYgViYkUAv1cR-18" target="Ehcnpz0QYgViYkUAv1cR-22">
          <mxGeometry relative="1" as="geometry" />
        </mxCell>
        <mxCell id="Ehcnpz0QYgViYkUAv1cR-18" value="page_param：确认自定义参数" style="rounded=1;whiteSpace=wrap;html=1;" vertex="1" parent="WIyWlLk6GJQsqaUBKTNV-1">
          <mxGeometry x="930" y="610" width="120" height="40" as="geometry" />
        </mxCell>
        <mxCell id="Ehcnpz0QYgViYkUAv1cR-24" style="edgeStyle=orthogonalEdgeStyle;rounded=0;orthogonalLoop=1;jettySize=auto;html=1;entryX=1;entryY=0.5;entryDx=0;entryDy=0;exitX=0.5;exitY=1;exitDx=0;exitDy=0;" edge="1" parent="WIyWlLk6GJQsqaUBKTNV-1" source="Ehcnpz0QYgViYkUAv1cR-22" target="Ehcnpz0QYgViYkUAv1cR-5">
          <mxGeometry relative="1" as="geometry" />
        </mxCell>
        <mxCell id="Ehcnpz0QYgViYkUAv1cR-22" value="&lt;span style=&quot;text-align: left&quot;&gt;explanation&lt;/span&gt;：填写自定义参数描述" style="rounded=1;whiteSpace=wrap;html=1;" vertex="1" parent="WIyWlLk6GJQsqaUBKTNV-1">
          <mxGeometry x="930" y="690" width="120" height="40" as="geometry" />
        </mxCell>
        <mxCell id="Ehcnpz0QYgViYkUAv1cR-31" style="edgeStyle=orthogonalEdgeStyle;rounded=0;orthogonalLoop=1;jettySize=auto;html=1;" edge="1" parent="WIyWlLk6GJQsqaUBKTNV-1" source="Ehcnpz0QYgViYkUAv1cR-25" target="Ehcnpz0QYgViYkUAv1cR-30">
          <mxGeometry relative="1" as="geometry" />
        </mxCell>
        <mxCell id="Ehcnpz0QYgViYkUAv1cR-34" value="否" style="edgeLabel;html=1;align=center;verticalAlign=middle;resizable=0;points=[];" vertex="1" connectable="0" parent="Ehcnpz0QYgViYkUAv1cR-31">
          <mxGeometry x="-0.075" y="1" relative="1" as="geometry">
            <mxPoint as="offset" />
          </mxGeometry>
        </mxCell>
        <mxCell id="Ehcnpz0QYgViYkUAv1cR-32" style="edgeStyle=orthogonalEdgeStyle;rounded=0;orthogonalLoop=1;jettySize=auto;html=1;entryX=0.5;entryY=0;entryDx=0;entryDy=0;" edge="1" parent="WIyWlLk6GJQsqaUBKTNV-1" source="Ehcnpz0QYgViYkUAv1cR-25" target="Ehcnpz0QYgViYkUAv1cR-29">
          <mxGeometry relative="1" as="geometry" />
        </mxCell>
        <mxCell id="Ehcnpz0QYgViYkUAv1cR-33" value="是" style="edgeLabel;html=1;align=center;verticalAlign=middle;resizable=0;points=[];" vertex="1" connectable="0" parent="Ehcnpz0QYgViYkUAv1cR-32">
          <mxGeometry x="-0.24" y="3" relative="1" as="geometry">
            <mxPoint as="offset" />
          </mxGeometry>
        </mxCell>
        <mxCell id="Ehcnpz0QYgViYkUAv1cR-25" value="是否需要点击埋点" style="rhombus;whiteSpace=wrap;html=1;shadow=0;fontFamily=Helvetica;fontSize=12;align=center;strokeWidth=1;spacing=6;spacingTop=-4;" vertex="1" parent="WIyWlLk6GJQsqaUBKTNV-1">
          <mxGeometry x="760" y="820" width="110" height="60" as="geometry" />
        </mxCell>
        <mxCell id="Ehcnpz0QYgViYkUAv1cR-37" value="" style="edgeStyle=orthogonalEdgeStyle;rounded=0;orthogonalLoop=1;jettySize=auto;html=1;" edge="1" parent="WIyWlLk6GJQsqaUBKTNV-1" source="Ehcnpz0QYgViYkUAv1cR-29" target="Ehcnpz0QYgViYkUAv1cR-36">
          <mxGeometry relative="1" as="geometry" />
        </mxCell>
        <mxCell id="Ehcnpz0QYgViYkUAv1cR-29" value="page_id：使用确认的页面id" style="rounded=1;whiteSpace=wrap;html=1;" vertex="1" parent="WIyWlLk6GJQsqaUBKTNV-1">
          <mxGeometry x="755" y="930" width="120" height="40" as="geometry" />
        </mxCell>
        <mxCell id="Ehcnpz0QYgViYkUAv1cR-68" value="" style="edgeStyle=orthogonalEdgeStyle;rounded=0;orthogonalLoop=1;jettySize=auto;html=1;" edge="1" parent="WIyWlLk6GJQsqaUBKTNV-1" source="Ehcnpz0QYgViYkUAv1cR-30" target="Ehcnpz0QYgViYkUAv1cR-56">
          <mxGeometry relative="1" as="geometry" />
        </mxCell>
        <mxCell id="Ehcnpz0QYgViYkUAv1cR-73" value="是" style="edgeLabel;html=1;align=center;verticalAlign=middle;resizable=0;points=[];" vertex="1" connectable="0" parent="Ehcnpz0QYgViYkUAv1cR-68">
          <mxGeometry x="-0.08" y="1" relative="1" as="geometry">
            <mxPoint as="offset" />
          </mxGeometry>
        </mxCell>
        <mxCell id="Ehcnpz0QYgViYkUAv1cR-72" style="edgeStyle=orthogonalEdgeStyle;rounded=0;orthogonalLoop=1;jettySize=auto;html=1;entryX=1;entryY=0.5;entryDx=0;entryDy=0;exitX=1;exitY=0.5;exitDx=0;exitDy=0;" edge="1" parent="WIyWlLk6GJQsqaUBKTNV-1" source="Ehcnpz0QYgViYkUAv1cR-30" target="Ehcnpz0QYgViYkUAv1cR-35">
          <mxGeometry relative="1" as="geometry" />
        </mxCell>
        <mxCell id="Ehcnpz0QYgViYkUAv1cR-74" value="否" style="edgeLabel;html=1;align=center;verticalAlign=middle;resizable=0;points=[];" vertex="1" connectable="0" parent="Ehcnpz0QYgViYkUAv1cR-72">
          <mxGeometry x="-0.7544" y="-3" relative="1" as="geometry">
            <mxPoint as="offset" />
          </mxGeometry>
        </mxCell>
        <mxCell id="Ehcnpz0QYgViYkUAv1cR-30" value="是否需要曝光埋点" style="rhombus;whiteSpace=wrap;html=1;shadow=0;fontFamily=Helvetica;fontSize=12;align=center;strokeWidth=1;spacing=6;spacingTop=-4;" vertex="1" parent="WIyWlLk6GJQsqaUBKTNV-1">
          <mxGeometry x="950" y="820" width="110" height="60" as="geometry" />
        </mxCell>
        <mxCell id="Ehcnpz0QYgViYkUAv1cR-83" value="" style="edgeStyle=orthogonalEdgeStyle;rounded=0;orthogonalLoop=1;jettySize=auto;html=1;" edge="1" parent="WIyWlLk6GJQsqaUBKTNV-1" source="Ehcnpz0QYgViYkUAv1cR-35" target="Ehcnpz0QYgViYkUAv1cR-82">
          <mxGeometry relative="1" as="geometry" />
        </mxCell>
        <mxCell id="Ehcnpz0QYgViYkUAv1cR-35" value="完成埋点文档" style="rounded=1;whiteSpace=wrap;html=1;" vertex="1" parent="WIyWlLk6GJQsqaUBKTNV-1">
          <mxGeometry x="860" y="1604" width="120" height="40" as="geometry" />
        </mxCell>
        <mxCell id="Ehcnpz0QYgViYkUAv1cR-41" value="" style="edgeStyle=orthogonalEdgeStyle;rounded=0;orthogonalLoop=1;jettySize=auto;html=1;" edge="1" parent="WIyWlLk6GJQsqaUBKTNV-1" source="Ehcnpz0QYgViYkUAv1cR-36" target="Ehcnpz0QYgViYkUAv1cR-40">
          <mxGeometry relative="1" as="geometry" />
        </mxCell>
        <mxCell id="Ehcnpz0QYgViYkUAv1cR-36" value="page：使用确认的页面名称" style="rounded=1;whiteSpace=wrap;html=1;" vertex="1" parent="WIyWlLk6GJQsqaUBKTNV-1">
          <mxGeometry x="755" y="1010" width="120" height="40" as="geometry" />
        </mxCell>
        <mxCell id="Ehcnpz0QYgViYkUAv1cR-38" value="page：使用确认的页面名称" style="rounded=1;whiteSpace=wrap;html=1;" vertex="1" parent="WIyWlLk6GJQsqaUBKTNV-1">
          <mxGeometry x="490" y="1120" width="120" height="40" as="geometry" />
        </mxCell>
        <mxCell id="Ehcnpz0QYgViYkUAv1cR-39" value="page：使用确认的页面名称" style="rounded=1;whiteSpace=wrap;html=1;" vertex="1" parent="WIyWlLk6GJQsqaUBKTNV-1">
          <mxGeometry x="490" y="1180" width="120" height="40" as="geometry" />
        </mxCell>
        <mxCell id="Ehcnpz0QYgViYkUAv1cR-43" value="" style="edgeStyle=orthogonalEdgeStyle;rounded=0;orthogonalLoop=1;jettySize=auto;html=1;" edge="1" parent="WIyWlLk6GJQsqaUBKTNV-1" source="Ehcnpz0QYgViYkUAv1cR-40" target="Ehcnpz0QYgViYkUAv1cR-42">
          <mxGeometry relative="1" as="geometry" />
        </mxCell>
        <mxCell id="Ehcnpz0QYgViYkUAv1cR-40" value="event_name：点击位名称" style="rounded=1;whiteSpace=wrap;html=1;" vertex="1" parent="WIyWlLk6GJQsqaUBKTNV-1">
          <mxGeometry x="755" y="1090" width="120" height="40" as="geometry" />
        </mxCell>
        <mxCell id="Ehcnpz0QYgViYkUAv1cR-45" value="" style="edgeStyle=orthogonalEdgeStyle;rounded=0;orthogonalLoop=1;jettySize=auto;html=1;" edge="1" parent="WIyWlLk6GJQsqaUBKTNV-1" source="Ehcnpz0QYgViYkUAv1cR-42">
          <mxGeometry relative="1" as="geometry">
            <mxPoint x="815" y="1250" as="targetPoint" />
          </mxGeometry>
        </mxCell>
        <mxCell id="Ehcnpz0QYgViYkUAv1cR-42" value="event_id：点击位ID" style="rounded=1;whiteSpace=wrap;html=1;" vertex="1" parent="WIyWlLk6GJQsqaUBKTNV-1">
          <mxGeometry x="755" y="1170" width="120" height="40" as="geometry" />
        </mxCell>
        <mxCell id="Ehcnpz0QYgViYkUAv1cR-50" value="" style="edgeStyle=orthogonalEdgeStyle;rounded=0;orthogonalLoop=1;jettySize=auto;html=1;" edge="1" parent="WIyWlLk6GJQsqaUBKTNV-1" source="Ehcnpz0QYgViYkUAv1cR-51" target="Ehcnpz0QYgViYkUAv1cR-52">
          <mxGeometry relative="1" as="geometry" />
        </mxCell>
        <mxCell id="Ehcnpz0QYgViYkUAv1cR-51" value="is_order：是否记入引单数据" style="rounded=1;whiteSpace=wrap;html=1;" vertex="1" parent="WIyWlLk6GJQsqaUBKTNV-1">
          <mxGeometry x="755" y="1320" width="120" height="40" as="geometry" />
        </mxCell>
        <mxCell id="Ehcnpz0QYgViYkUAv1cR-76" value="" style="edgeStyle=orthogonalEdgeStyle;rounded=0;orthogonalLoop=1;jettySize=auto;html=1;" edge="1" parent="WIyWlLk6GJQsqaUBKTNV-1" source="Ehcnpz0QYgViYkUAv1cR-52" target="Ehcnpz0QYgViYkUAv1cR-75">
          <mxGeometry relative="1" as="geometry" />
        </mxCell>
        <mxCell id="Ehcnpz0QYgViYkUAv1cR-52" value="skuposition：加购sku位置" style="rounded=1;whiteSpace=wrap;html=1;" vertex="1" parent="WIyWlLk6GJQsqaUBKTNV-1">
          <mxGeometry x="755" y="1390" width="120" height="40" as="geometry" />
        </mxCell>
        <mxCell id="Ehcnpz0QYgViYkUAv1cR-54" value="" style="edgeStyle=orthogonalEdgeStyle;rounded=0;orthogonalLoop=1;jettySize=auto;html=1;" edge="1" parent="WIyWlLk6GJQsqaUBKTNV-1" source="Ehcnpz0QYgViYkUAv1cR-53" target="Ehcnpz0QYgViYkUAv1cR-51">
          <mxGeometry relative="1" as="geometry" />
        </mxCell>
        <mxCell id="Ehcnpz0QYgViYkUAv1cR-53" value="event_param：确认自定义参数" style="rounded=1;whiteSpace=wrap;html=1;" vertex="1" parent="WIyWlLk6GJQsqaUBKTNV-1">
          <mxGeometry x="755" y="1250" width="120" height="40" as="geometry" />
        </mxCell>
        <mxCell id="Ehcnpz0QYgViYkUAv1cR-55" value="" style="edgeStyle=orthogonalEdgeStyle;rounded=0;orthogonalLoop=1;jettySize=auto;html=1;" edge="1" parent="WIyWlLk6GJQsqaUBKTNV-1" source="Ehcnpz0QYgViYkUAv1cR-56" target="Ehcnpz0QYgViYkUAv1cR-58">
          <mxGeometry relative="1" as="geometry" />
        </mxCell>
        <mxCell id="Ehcnpz0QYgViYkUAv1cR-56" value="page_id：使用确认的页面id" style="rounded=1;whiteSpace=wrap;html=1;" vertex="1" parent="WIyWlLk6GJQsqaUBKTNV-1">
          <mxGeometry x="945" y="930" width="120" height="40" as="geometry" />
        </mxCell>
        <mxCell id="Ehcnpz0QYgViYkUAv1cR-57" value="" style="edgeStyle=orthogonalEdgeStyle;rounded=0;orthogonalLoop=1;jettySize=auto;html=1;" edge="1" parent="WIyWlLk6GJQsqaUBKTNV-1" source="Ehcnpz0QYgViYkUAv1cR-58" target="Ehcnpz0QYgViYkUAv1cR-60">
          <mxGeometry relative="1" as="geometry" />
        </mxCell>
        <mxCell id="Ehcnpz0QYgViYkUAv1cR-58" value="page：使用确认的页面名称" style="rounded=1;whiteSpace=wrap;html=1;" vertex="1" parent="WIyWlLk6GJQsqaUBKTNV-1">
          <mxGeometry x="945" y="1010" width="120" height="40" as="geometry" />
        </mxCell>
        <mxCell id="Ehcnpz0QYgViYkUAv1cR-59" value="" style="edgeStyle=orthogonalEdgeStyle;rounded=0;orthogonalLoop=1;jettySize=auto;html=1;" edge="1" parent="WIyWlLk6GJQsqaUBKTNV-1" source="Ehcnpz0QYgViYkUAv1cR-60" target="Ehcnpz0QYgViYkUAv1cR-62">
          <mxGeometry relative="1" as="geometry" />
        </mxCell>
        <mxCell id="Ehcnpz0QYgViYkUAv1cR-60" value="event_name：点击位名称" style="rounded=1;whiteSpace=wrap;html=1;" vertex="1" parent="WIyWlLk6GJQsqaUBKTNV-1">
          <mxGeometry x="945" y="1090" width="120" height="40" as="geometry" />
        </mxCell>
        <mxCell id="Ehcnpz0QYgViYkUAv1cR-61" value="" style="edgeStyle=orthogonalEdgeStyle;rounded=0;orthogonalLoop=1;jettySize=auto;html=1;" edge="1" parent="WIyWlLk6GJQsqaUBKTNV-1" source="Ehcnpz0QYgViYkUAv1cR-62">
          <mxGeometry relative="1" as="geometry">
            <mxPoint x="1005" y="1250" as="targetPoint" />
          </mxGeometry>
        </mxCell>
        <mxCell id="Ehcnpz0QYgViYkUAv1cR-62" value="event_id：点击位ID" style="rounded=1;whiteSpace=wrap;html=1;" vertex="1" parent="WIyWlLk6GJQsqaUBKTNV-1">
          <mxGeometry x="945" y="1170" width="120" height="40" as="geometry" />
        </mxCell>
        <mxCell id="Ehcnpz0QYgViYkUAv1cR-66" value="" style="edgeStyle=orthogonalEdgeStyle;rounded=0;orthogonalLoop=1;jettySize=auto;html=1;" edge="1" parent="WIyWlLk6GJQsqaUBKTNV-1" source="Ehcnpz0QYgViYkUAv1cR-67">
          <mxGeometry relative="1" as="geometry">
            <mxPoint x="1005" y="1320" as="targetPoint" />
          </mxGeometry>
        </mxCell>
        <mxCell id="Ehcnpz0QYgViYkUAv1cR-81" style="edgeStyle=orthogonalEdgeStyle;rounded=0;orthogonalLoop=1;jettySize=auto;html=1;entryX=0.5;entryY=0;entryDx=0;entryDy=0;" edge="1" parent="WIyWlLk6GJQsqaUBKTNV-1">
          <mxGeometry relative="1" as="geometry">
            <mxPoint x="1005" y="1287" as="sourcePoint" />
            <mxPoint x="920" y="1601" as="targetPoint" />
            <Array as="points">
              <mxPoint x="1005" y="1567" />
              <mxPoint x="920" y="1567" />
            </Array>
          </mxGeometry>
        </mxCell>
        <mxCell id="Ehcnpz0QYgViYkUAv1cR-67" value="event_param：确认自定义参数" style="rounded=1;whiteSpace=wrap;html=1;" vertex="1" parent="WIyWlLk6GJQsqaUBKTNV-1">
          <mxGeometry x="945" y="1250" width="120" height="40" as="geometry" />
        </mxCell>
        <mxCell id="Ehcnpz0QYgViYkUAv1cR-77" style="edgeStyle=orthogonalEdgeStyle;rounded=0;orthogonalLoop=1;jettySize=auto;html=1;entryX=0;entryY=0.5;entryDx=0;entryDy=0;" edge="1" parent="WIyWlLk6GJQsqaUBKTNV-1" source="Ehcnpz0QYgViYkUAv1cR-75" target="Ehcnpz0QYgViYkUAv1cR-56">
          <mxGeometry relative="1" as="geometry" />
        </mxCell>
        <mxCell id="Ehcnpz0QYgViYkUAv1cR-80" value="是" style="edgeLabel;html=1;align=center;verticalAlign=middle;resizable=0;points=[];" vertex="1" connectable="0" parent="Ehcnpz0QYgViYkUAv1cR-77">
          <mxGeometry x="-0.9296" y="-3" relative="1" as="geometry">
            <mxPoint as="offset" />
          </mxGeometry>
        </mxCell>
        <mxCell id="Ehcnpz0QYgViYkUAv1cR-78" style="edgeStyle=orthogonalEdgeStyle;rounded=0;orthogonalLoop=1;jettySize=auto;html=1;entryX=0.5;entryY=0;entryDx=0;entryDy=0;" edge="1" parent="WIyWlLk6GJQsqaUBKTNV-1" source="Ehcnpz0QYgViYkUAv1cR-75" target="Ehcnpz0QYgViYkUAv1cR-35">
          <mxGeometry relative="1" as="geometry" />
        </mxCell>
        <mxCell id="Ehcnpz0QYgViYkUAv1cR-79" value="否" style="edgeLabel;html=1;align=center;verticalAlign=middle;resizable=0;points=[];" vertex="1" connectable="0" parent="Ehcnpz0QYgViYkUAv1cR-78">
          <mxGeometry x="-0.6746" y="4" relative="1" as="geometry">
            <mxPoint as="offset" />
          </mxGeometry>
        </mxCell>
        <mxCell id="Ehcnpz0QYgViYkUAv1cR-75" value="是否需要曝光埋点" style="rhombus;whiteSpace=wrap;html=1;shadow=0;fontFamily=Helvetica;fontSize=12;align=center;strokeWidth=1;spacing=6;spacingTop=-4;" vertex="1" parent="WIyWlLk6GJQsqaUBKTNV-1">
          <mxGeometry x="760" y="1470" width="110" height="60" as="geometry" />
        </mxCell>
        <mxCell id="Ehcnpz0QYgViYkUAv1cR-85" value="" style="edgeStyle=orthogonalEdgeStyle;rounded=0;orthogonalLoop=1;jettySize=auto;html=1;" edge="1" parent="WIyWlLk6GJQsqaUBKTNV-1" source="Ehcnpz0QYgViYkUAv1cR-82" target="Ehcnpz0QYgViYkUAv1cR-84">
          <mxGeometry relative="1" as="geometry" />
        </mxCell>
        <mxCell id="Ehcnpz0QYgViYkUAv1cR-82" value="交付研发评审" style="rounded=1;whiteSpace=wrap;html=1;" vertex="1" parent="WIyWlLk6GJQsqaUBKTNV-1">
          <mxGeometry x="860" y="1680" width="120" height="40" as="geometry" />
        </mxCell>
        <mxCell id="Ehcnpz0QYgViYkUAv1cR-84" value="同步埋点产品" style="rounded=1;whiteSpace=wrap;html=1;" vertex="1" parent="WIyWlLk6GJQsqaUBKTNV-1">
          <mxGeometry x="860" y="1754" width="120" height="40" as="geometry" />
        </mxCell>
      </root>
    </mxGraphModel>
  </diagram>
</mxfile>
